<?xml version="1.0" encoding="UTF-8"?>
<svg xmlns="http://www.w3.org/2000/svg" viewBox="0 0 49 49" width="600" height="600" role="img" shape-rendering="crispEdges">
  <title>https://qr.comphy-lab.org/bursting-bubble-paper/</title>
  <rect width="49" height="49" fill="#FFFFFF"/>
  <path d="M4 4h7v1h-7zM13 4h2v1h-2zM20 4h7v1h-7zM30 4h3v1h-3zM34 4h1v1h-1zM38 4h7v1h-7zM4 5h1v1h-1zM10 5h1v1h-1zM12 5h1v1h-1zM14 5h2v1h-2zM17 5h5v1h-5zM23 5h1v1h-1zM25 5h4v1h-4zM34 5h3v1h-3zM38 5h1v1h-1zM44 5h1v1h-1zM4 6h1v1h-1zM6 6h3v1h-3zM10 6h1v1h-1zM13 6h3v1h-3zM17 6h3v1h-3zM27 6h3v1h-3zM31 6h5v1h-5zM38 6h1v1h-1zM40 6h3v1h-3zM44 6h1v1h-1zM4 7h1v1h-1zM6 7h3v1h-3zM10 7h1v1h-1zM13 7h1v1h-1zM15 7h4v1h-4zM21 7h3v1h-3zM27 7h1v1h-1zM30 7h2v1h-2zM33 7h1v1h-1zM36 7h1v1h-1zM38 7h1v1h-1zM40 7h3v1h-3zM44 7h1v1h-1zM4 8h1v1h-1zM6 8h3v1h-3zM10 8h1v1h-1zM14 8h5v1h-5zM21 8h1v1h-1zM26 8h1v1h-1zM28 8h1v1h-1zM30 8h3v1h-3zM38 8h1v1h-1zM40 8h3v1h-3zM44 8h1v1h-1zM4 9h1v1h-1zM10 9h1v1h-1zM12 9h1v1h-1zM15 9h1v1h-1zM18 9h1v1h-1zM20 9h1v1h-1zM24 9h4v1h-4zM32 9h1v1h-1zM34 9h2v1h-2zM38 9h1v1h-1zM44 9h1v1h-1zM4 10h7v1h-7zM12 10h1v1h-1zM14 10h1v1h-1zM16 10h1v1h-1zM18 10h1v1h-1zM20 10h1v1h-1zM22 10h1v1h-1zM24 10h1v1h-1zM26 10h1v1h-1zM28 10h1v1h-1zM30 10h1v1h-1zM32 10h1v1h-1zM34 10h1v1h-1zM36 10h1v1h-1zM38 10h7v1h-7zM12 11h1v1h-1zM17 11h2v1h-2zM23 11h1v1h-1zM25 11h1v1h-1zM28 11h1v1h-1zM30 11h2v1h-2zM33 11h4v1h-4zM8 12h4v1h-4zM13 12h1v1h-1zM18 12h1v1h-1zM20 12h1v1h-1zM22 12h2v1h-2zM25 12h6v1h-6zM33 12h1v1h-1zM38 12h2v1h-2zM43 12h1v1h-1zM5 13h1v1h-1zM8 13h1v1h-1zM11 13h1v1h-1zM14 13h1v1h-1zM17 13h8v1h-8zM28 13h5v1h-5zM38 13h1v1h-1zM40 13h2v1h-2zM44 13h1v1h-1zM5 14h3v1h-3zM10 14h3v1h-3zM14 14h3v1h-3zM21 14h1v1h-1zM24 14h1v1h-1zM28 14h1v1h-1zM30 14h2v1h-2zM36 14h3v1h-3zM40 14h1v1h-1zM44 14h1v1h-1zM4 15h1v1h-1zM8 15h1v1h-1zM12 15h2v1h-2zM17 15h1v1h-1zM19 15h1v1h-1zM22 15h1v1h-1zM24 15h3v1h-3zM28 15h3v1h-3zM33 15h1v1h-1zM35 15h4v1h-4zM41 15h1v1h-1zM43 15h2v1h-2zM4 16h3v1h-3zM10 16h2v1h-2zM14 16h1v1h-1zM17 16h1v1h-1zM19 16h1v1h-1zM21 16h1v1h-1zM27 16h1v1h-1zM30 16h4v1h-4zM36 16h1v1h-1zM4 17h1v1h-1zM8 17h1v1h-1zM11 17h1v1h-1zM16 17h2v1h-2zM19 17h3v1h-3zM23 17h1v1h-1zM26 17h1v1h-1zM30 17h1v1h-1zM34 17h2v1h-2zM39 17h3v1h-3zM43 17h2v1h-2zM7 18h2v1h-2zM10 18h2v1h-2zM13 18h2v1h-2zM17 18h3v1h-3zM24 18h3v1h-3zM28 18h2v1h-2zM31 18h1v1h-1zM35 18h1v1h-1zM37 18h3v1h-3zM44 18h1v1h-1zM11 19h1v1h-1zM13 19h1v1h-1zM15 19h1v1h-1zM17 19h2v1h-2zM20 19h1v1h-1zM23 19h2v1h-2zM26 19h3v1h-3zM31 19h3v1h-3zM35 19h2v1h-2zM40 19h2v1h-2zM4 20h2v1h-2zM8 20h1v1h-1zM10 20h3v1h-3zM14 20h3v1h-3zM18 20h1v1h-1zM21 20h1v1h-1zM24 20h5v1h-5zM32 20h2v1h-2zM36 20h1v1h-1zM39 20h1v1h-1zM5 21h5v1h-5zM11 21h1v1h-1zM13 21h1v1h-1zM16 21h3v1h-3zM28 21h1v1h-1zM31 21h4v1h-4zM37 21h4v1h-4zM42 21h1v1h-1zM44 21h1v1h-1zM5 22h1v1h-1zM7 22h1v1h-1zM9 22h3v1h-3zM14 22h1v1h-1zM16 22h1v1h-1zM18 22h1v1h-1zM20 22h1v1h-1zM22 22h2v1h-2zM25 22h1v1h-1zM29 22h1v1h-1zM31 22h1v1h-1zM34 22h1v1h-1zM36 22h4v1h-4zM44 22h1v1h-1zM5 23h2v1h-2zM8 23h2v1h-2zM11 23h2v1h-2zM15 23h1v1h-1zM18 23h1v1h-1zM21 23h1v1h-1zM24 23h1v1h-1zM29 23h1v1h-1zM31 23h1v1h-1zM36 23h1v1h-1zM38 23h2v1h-2zM41 23h1v1h-1zM43 23h2v1h-2zM7 24h1v1h-1zM9 24h2v1h-2zM12 24h1v1h-1zM14 24h2v1h-2zM18 24h2v1h-2zM21 24h1v1h-1zM29 24h1v1h-1zM31 24h2v1h-2zM35 24h3v1h-3zM40 24h2v1h-2zM5 25h1v1h-1zM7 25h1v1h-1zM11 25h2v1h-2zM14 25h2v1h-2zM19 25h4v1h-4zM25 25h2v1h-2zM28 25h1v1h-1zM31 25h2v1h-2zM34 25h1v1h-1zM38 25h1v1h-1zM40 25h1v1h-1zM42 25h1v1h-1zM44 25h1v1h-1zM6 26h3v1h-3zM10 26h1v1h-1zM13 26h2v1h-2zM17 26h5v1h-5zM23 26h1v1h-1zM30 26h3v1h-3zM40 26h2v1h-2zM44 26h1v1h-1zM5 27h4v1h-4zM14 27h1v1h-1zM16 27h1v1h-1zM20 27h1v1h-1zM22 27h2v1h-2zM25 27h1v1h-1zM27 27h2v1h-2zM30 27h1v1h-1zM32 27h2v1h-2zM35 27h2v1h-2zM38 27h1v1h-1zM40 27h2v1h-2zM43 27h2v1h-2zM4 28h2v1h-2zM8 28h3v1h-3zM12 28h3v1h-3zM17 28h3v1h-3zM21 28h3v1h-3zM25 28h1v1h-1zM33 28h2v1h-2zM36 28h2v1h-2zM5 29h1v1h-1zM9 29h1v1h-1zM11 29h2v1h-2zM14 29h2v1h-2zM18 29h1v1h-1zM22 29h1v1h-1zM24 29h2v1h-2zM31 29h2v1h-2zM34 29h1v1h-1zM36 29h1v1h-1zM38 29h3v1h-3zM42 29h3v1h-3zM6 30h1v1h-1zM10 30h1v1h-1zM12 30h1v1h-1zM15 30h4v1h-4zM20 30h2v1h-2zM28 30h1v1h-1zM31 30h1v1h-1zM34 30h1v1h-1zM36 30h1v1h-1zM39 30h2v1h-2zM44 30h1v1h-1zM4 31h3v1h-3zM8 31h1v1h-1zM11 31h1v1h-1zM15 31h1v1h-1zM17 31h2v1h-2zM20 31h1v1h-1zM22 31h1v1h-1zM24 31h1v1h-1zM27 31h4v1h-4zM32 31h6v1h-6zM40 31h2v1h-2zM44 31h1v1h-1zM5 32h1v1h-1zM7 32h1v1h-1zM10 32h6v1h-6zM18 32h2v1h-2zM22 32h4v1h-4zM28 32h1v1h-1zM33 32h2v1h-2zM37 32h2v1h-2zM4 33h1v1h-1zM8 33h1v1h-1zM13 33h1v1h-1zM15 33h2v1h-2zM20 33h1v1h-1zM22 33h6v1h-6zM29 33h1v1h-1zM32 33h5v1h-5zM39 33h3v1h-3zM43 33h2v1h-2zM6 34h1v1h-1zM8 34h1v1h-1zM10 34h2v1h-2zM14 34h1v1h-1zM16 34h2v1h-2zM32 34h3v1h-3zM36 34h2v1h-2zM41 34h1v1h-1zM44 34h1v1h-1zM9 35h1v1h-1zM11 35h1v1h-1zM14 35h1v1h-1zM16 35h1v1h-1zM18 35h1v1h-1zM21 35h1v1h-1zM25 35h1v1h-1zM29 35h1v1h-1zM33 35h1v1h-1zM37 35h1v1h-1zM40 35h1v1h-1zM43 35h1v1h-1zM4 36h2v1h-2zM8 36h1v1h-1zM10 36h1v1h-1zM12 36h1v1h-1zM18 36h1v1h-1zM21 36h2v1h-2zM26 36h1v1h-1zM29 36h1v1h-1zM31 36h1v1h-1zM33 36h1v1h-1zM35 36h7v1h-7zM12 37h5v1h-5zM19 37h1v1h-1zM22 37h1v1h-1zM24 37h1v1h-1zM31 37h1v1h-1zM34 37h1v1h-1zM36 37h1v1h-1zM40 37h2v1h-2zM43 37h2v1h-2zM4 38h7v1h-7zM12 38h2v1h-2zM17 38h4v1h-4zM22 38h1v1h-1zM25 38h3v1h-3zM30 38h2v1h-2zM33 38h1v1h-1zM35 38h2v1h-2zM38 38h1v1h-1zM40 38h2v1h-2zM44 38h1v1h-1zM4 39h1v1h-1zM10 39h1v1h-1zM12 39h4v1h-4zM18 39h1v1h-1zM20 39h1v1h-1zM23 39h1v1h-1zM25 39h3v1h-3zM30 39h2v1h-2zM33 39h4v1h-4zM40 39h2v1h-2zM44 39h1v1h-1zM4 40h1v1h-1zM6 40h3v1h-3zM10 40h1v1h-1zM12 40h1v1h-1zM15 40h4v1h-4zM22 40h1v1h-1zM24 40h1v1h-1zM27 40h2v1h-2zM34 40h8v1h-8zM43 40h2v1h-2zM4 41h1v1h-1zM6 41h3v1h-3zM10 41h1v1h-1zM13 41h3v1h-3zM20 41h1v1h-1zM22 41h6v1h-6zM29 41h1v1h-1zM31 41h3v1h-3zM35 41h1v1h-1zM39 41h1v1h-1zM41 41h4v1h-4zM4 42h1v1h-1zM6 42h3v1h-3zM10 42h1v1h-1zM13 42h2v1h-2zM16 42h3v1h-3zM21 42h1v1h-1zM26 42h1v1h-1zM28 42h1v1h-1zM30 42h2v1h-2zM34 42h1v1h-1zM37 42h1v1h-1zM42 42h3v1h-3zM4 43h1v1h-1zM10 43h1v1h-1zM14 43h2v1h-2zM18 43h3v1h-3zM23 43h2v1h-2zM28 43h2v1h-2zM33 43h1v1h-1zM36 43h4v1h-4zM43 43h2v1h-2zM4 44h7v1h-7zM14 44h1v1h-1zM17 44h3v1h-3zM21 44h4v1h-4zM29 44h3v1h-3zM33 44h1v1h-1zM35 44h2v1h-2zM38 44h4v1h-4zM43 44h1v1h-1z" fill="#67236C"/>
</svg>
