<?xml version="1.0" encoding="UTF-8"?>
<svg xmlns="http://www.w3.org/2000/svg" viewBox="0 0 57 57" width="600" height="600" role="img" shape-rendering="crispEdges">
  <title>https://youtube.com/playlist?list=PLf5C5HCrvhLGmlYTF1Gg2WviZ-Bkmy2qr</title>
  <rect width="57" height="57" fill="#FFFFFF"/>
  <path d="M4 4h7v1h-7zM12 4h1v1h-1zM14 4h1v1h-1zM16 4h3v1h-3zM20 4h3v1h-3zM24 4h3v1h-3zM28 4h1v1h-1zM31 4h4v1h-4zM36 4h5v1h-5zM44 4h1v1h-1zM46 4h7v1h-7zM4 5h1v1h-1zM10 5h1v1h-1zM12 5h2v1h-2zM19 5h1v1h-1zM21 5h2v1h-2zM24 5h4v1h-4zM29 5h1v1h-1zM33 5h1v1h-1zM35 5h1v1h-1zM37 5h1v1h-1zM39 5h6v1h-6zM46 5h1v1h-1zM52 5h1v1h-1zM4 6h1v1h-1zM6 6h3v1h-3zM10 6h1v1h-1zM13 6h2v1h-2zM17 6h1v1h-1zM20 6h1v1h-1zM22 6h1v1h-1zM26 6h1v1h-1zM32 6h1v1h-1zM35 6h1v1h-1zM37 6h2v1h-2zM43 6h2v1h-2zM46 6h1v1h-1zM48 6h3v1h-3zM52 6h1v1h-1zM4 7h1v1h-1zM6 7h3v1h-3zM10 7h1v1h-1zM12 7h1v1h-1zM14 7h2v1h-2zM17 7h2v1h-2zM20 7h1v1h-1zM24 7h4v1h-4zM29 7h1v1h-1zM31 7h1v1h-1zM36 7h1v1h-1zM43 7h1v1h-1zM46 7h1v1h-1zM48 7h3v1h-3zM52 7h1v1h-1zM4 8h1v1h-1zM6 8h3v1h-3zM10 8h1v1h-1zM12 8h2v1h-2zM17 8h1v1h-1zM21 8h1v1h-1zM23 8h2v1h-2zM26 8h6v1h-6zM37 8h1v1h-1zM39 8h1v1h-1zM41 8h1v1h-1zM46 8h1v1h-1zM48 8h3v1h-3zM52 8h1v1h-1zM4 9h1v1h-1zM10 9h1v1h-1zM12 9h1v1h-1zM16 9h3v1h-3zM21 9h1v1h-1zM23 9h4v1h-4zM30 9h4v1h-4zM37 9h1v1h-1zM39 9h2v1h-2zM42 9h1v1h-1zM46 9h1v1h-1zM52 9h1v1h-1zM4 10h7v1h-7zM12 10h1v1h-1zM14 10h1v1h-1zM16 10h1v1h-1zM18 10h1v1h-1zM20 10h1v1h-1zM22 10h1v1h-1zM24 10h1v1h-1zM26 10h1v1h-1zM28 10h1v1h-1zM30 10h1v1h-1zM32 10h1v1h-1zM34 10h1v1h-1zM36 10h1v1h-1zM38 10h1v1h-1zM40 10h1v1h-1zM42 10h1v1h-1zM44 10h1v1h-1zM46 10h7v1h-7zM13 11h1v1h-1zM15 11h1v1h-1zM17 11h1v1h-1zM21 11h1v1h-1zM23 11h1v1h-1zM26 11h1v1h-1zM30 11h3v1h-3zM34 11h1v1h-1zM36 11h1v1h-1zM38 11h2v1h-2zM41 11h2v1h-2zM7 12h1v1h-1zM10 12h1v1h-1zM14 12h1v1h-1zM16 12h2v1h-2zM24 12h7v1h-7zM32 12h1v1h-1zM34 12h3v1h-3zM41 12h1v1h-1zM43 12h1v1h-1zM47 12h3v1h-3zM51 12h2v1h-2zM5 13h1v1h-1zM9 13h1v1h-1zM12 13h2v1h-2zM15 13h1v1h-1zM20 13h1v1h-1zM22 13h1v1h-1zM24 13h2v1h-2zM30 13h2v1h-2zM34 13h4v1h-4zM39 13h2v1h-2zM47 13h1v1h-1zM49 13h1v1h-1zM52 13h1v1h-1zM5 14h4v1h-4zM10 14h3v1h-3zM17 14h1v1h-1zM20 14h1v1h-1zM24 14h1v1h-1zM28 14h3v1h-3zM32 14h1v1h-1zM35 14h5v1h-5zM41 14h1v1h-1zM43 14h2v1h-2zM46 14h2v1h-2zM50 14h3v1h-3zM8 15h1v1h-1zM15 15h1v1h-1zM23 15h1v1h-1zM27 15h1v1h-1zM34 15h1v1h-1zM36 15h2v1h-2zM39 15h4v1h-4zM44 15h1v1h-1zM46 15h1v1h-1zM51 15h2v1h-2zM4 16h4v1h-4zM9 16h2v1h-2zM12 16h1v1h-1zM14 16h1v1h-1zM16 16h2v1h-2zM19 16h2v1h-2zM22 16h1v1h-1zM26 16h1v1h-1zM28 16h3v1h-3zM33 16h1v1h-1zM35 16h2v1h-2zM40 16h1v1h-1zM45 16h6v1h-6zM52 16h1v1h-1zM8 17h1v1h-1zM11 17h2v1h-2zM15 17h3v1h-3zM21 17h1v1h-1zM25 17h3v1h-3zM30 17h1v1h-1zM33 17h1v1h-1zM38 17h1v1h-1zM41 17h1v1h-1zM43 17h2v1h-2zM47 17h1v1h-1zM49 17h2v1h-2zM52 17h1v1h-1zM5 18h3v1h-3zM9 18h3v1h-3zM15 18h2v1h-2zM19 18h3v1h-3zM24 18h2v1h-2zM28 18h1v1h-1zM30 18h1v1h-1zM32 18h1v1h-1zM36 18h2v1h-2zM39 18h1v1h-1zM42 18h1v1h-1zM46 18h1v1h-1zM48 18h5v1h-5zM5 19h1v1h-1zM8 19h2v1h-2zM12 19h1v1h-1zM15 19h3v1h-3zM21 19h2v1h-2zM24 19h1v1h-1zM26 19h3v1h-3zM33 19h1v1h-1zM36 19h2v1h-2zM39 19h1v1h-1zM41 19h1v1h-1zM43 19h2v1h-2zM46 19h4v1h-4zM51 19h1v1h-1zM7 20h1v1h-1zM9 20h5v1h-5zM17 20h2v1h-2zM20 20h1v1h-1zM24 20h2v1h-2zM27 20h1v1h-1zM29 20h1v1h-1zM31 20h2v1h-2zM36 20h2v1h-2zM39 20h2v1h-2zM42 20h1v1h-1zM48 20h2v1h-2zM51 20h2v1h-2zM5 21h3v1h-3zM11 21h2v1h-2zM16 21h1v1h-1zM18 21h1v1h-1zM20 21h1v1h-1zM22 21h1v1h-1zM25 21h2v1h-2zM29 21h4v1h-4zM35 21h3v1h-3zM41 21h2v1h-2zM44 21h3v1h-3zM49 21h2v1h-2zM52 21h1v1h-1zM4 22h2v1h-2zM7 22h1v1h-1zM10 22h4v1h-4zM16 22h3v1h-3zM20 22h1v1h-1zM22 22h4v1h-4zM27 22h2v1h-2zM30 22h1v1h-1zM32 22h2v1h-2zM35 22h8v1h-8zM46 22h1v1h-1zM48 22h1v1h-1zM50 22h3v1h-3zM6 23h3v1h-3zM11 23h3v1h-3zM18 23h1v1h-1zM22 23h1v1h-1zM25 23h1v1h-1zM27 23h1v1h-1zM29 23h1v1h-1zM33 23h1v1h-1zM38 23h1v1h-1zM40 23h3v1h-3zM45 23h1v1h-1zM47 23h2v1h-2zM50 23h3v1h-3zM4 24h1v1h-1zM6 24h1v1h-1zM8 24h1v1h-1zM10 24h1v1h-1zM12 24h1v1h-1zM14 24h2v1h-2zM17 24h11v1h-11zM29 24h5v1h-5zM35 24h1v1h-1zM37 24h6v1h-6zM44 24h4v1h-4zM49 24h1v1h-1zM51 24h2v1h-2zM11 25h2v1h-2zM16 25h1v1h-1zM18 25h2v1h-2zM22 25h2v1h-2zM25 25h1v1h-1zM27 25h2v1h-2zM32 25h1v1h-1zM35 25h1v1h-1zM39 25h3v1h-3zM47 25h1v1h-1zM51 25h2v1h-2zM6 26h7v1h-7zM15 26h1v1h-1zM18 26h1v1h-1zM24 26h8v1h-8zM34 26h2v1h-2zM37 26h5v1h-5zM43 26h7v1h-7zM51 26h2v1h-2zM4 27h1v1h-1zM8 27h1v1h-1zM12 27h1v1h-1zM14 27h1v1h-1zM16 27h1v1h-1zM21 27h3v1h-3zM25 27h2v1h-2zM30 27h1v1h-1zM33 27h4v1h-4zM38 27h7v1h-7zM48 27h2v1h-2zM4 28h1v1h-1zM7 28h2v1h-2zM10 28h1v1h-1zM12 28h4v1h-4zM18 28h3v1h-3zM25 28h2v1h-2zM28 28h1v1h-1zM30 28h1v1h-1zM33 28h3v1h-3zM38 28h3v1h-3zM42 28h3v1h-3zM46 28h1v1h-1zM48 28h1v1h-1zM51 28h2v1h-2zM6 29h1v1h-1zM8 29h1v1h-1zM12 29h3v1h-3zM19 29h1v1h-1zM21 29h3v1h-3zM25 29h2v1h-2zM30 29h1v1h-1zM32 29h3v1h-3zM36 29h1v1h-1zM38 29h1v1h-1zM41 29h1v1h-1zM44 29h1v1h-1zM48 29h1v1h-1zM51 29h1v1h-1zM4 30h2v1h-2zM8 30h8v1h-8zM17 30h1v1h-1zM24 30h8v1h-8zM33 30h1v1h-1zM35 30h2v1h-2zM39 30h2v1h-2zM42 30h1v1h-1zM44 30h6v1h-6zM4 31h1v1h-1zM6 31h3v1h-3zM11 31h3v1h-3zM15 31h1v1h-1zM19 31h1v1h-1zM22 31h1v1h-1zM24 31h3v1h-3zM28 31h3v1h-3zM32 31h2v1h-2zM35 31h1v1h-1zM37 31h1v1h-1zM39 31h3v1h-3zM44 31h1v1h-1zM46 31h1v1h-1zM51 31h2v1h-2zM5 32h6v1h-6zM12 32h1v1h-1zM14 32h1v1h-1zM17 32h1v1h-1zM19 32h3v1h-3zM23 32h1v1h-1zM26 32h1v1h-1zM31 32h1v1h-1zM34 32h9v1h-9zM44 32h2v1h-2zM48 32h1v1h-1zM50 32h2v1h-2zM4 33h3v1h-3zM8 33h2v1h-2zM12 33h1v1h-1zM15 33h3v1h-3zM19 33h1v1h-1zM21 33h3v1h-3zM25 33h1v1h-1zM28 33h3v1h-3zM33 33h5v1h-5zM39 33h1v1h-1zM42 33h1v1h-1zM44 33h6v1h-6zM51 33h2v1h-2zM4 34h1v1h-1zM6 34h5v1h-5zM16 34h1v1h-1zM18 34h4v1h-4zM23 34h3v1h-3zM28 34h1v1h-1zM30 34h1v1h-1zM32 34h2v1h-2zM36 34h2v1h-2zM42 34h1v1h-1zM45 34h4v1h-4zM52 34h1v1h-1zM6 35h1v1h-1zM8 35h1v1h-1zM12 35h5v1h-5zM18 35h1v1h-1zM20 35h1v1h-1zM23 35h1v1h-1zM25 35h2v1h-2zM33 35h1v1h-1zM35 35h1v1h-1zM37 35h2v1h-2zM41 35h2v1h-2zM44 35h3v1h-3zM50 35h1v1h-1zM52 35h1v1h-1zM4 36h3v1h-3zM8 36h4v1h-4zM13 36h2v1h-2zM16 36h1v1h-1zM19 36h3v1h-3zM24 36h2v1h-2zM28 36h1v1h-1zM30 36h2v1h-2zM34 36h1v1h-1zM37 36h4v1h-4zM44 36h3v1h-3zM48 36h2v1h-2zM52 36h1v1h-1zM4 37h2v1h-2zM8 37h2v1h-2zM13 37h1v1h-1zM15 37h2v1h-2zM18 37h1v1h-1zM21 37h2v1h-2zM25 37h5v1h-5zM31 37h2v1h-2zM43 37h2v1h-2zM46 37h1v1h-1zM51 37h1v1h-1zM5 38h1v1h-1zM7 38h2v1h-2zM10 38h1v1h-1zM12 38h1v1h-1zM14 38h1v1h-1zM19 38h1v1h-1zM21 38h1v1h-1zM23 38h1v1h-1zM26 38h1v1h-1zM32 38h2v1h-2zM35 38h2v1h-2zM40 38h1v1h-1zM42 38h1v1h-1zM45 38h3v1h-3zM49 38h4v1h-4zM5 39h1v1h-1zM7 39h1v1h-1zM9 39h1v1h-1zM12 39h2v1h-2zM15 39h1v1h-1zM18 39h1v1h-1zM21 39h2v1h-2zM24 39h1v1h-1zM26 39h2v1h-2zM29 39h2v1h-2zM34 39h4v1h-4zM39 39h3v1h-3zM45 39h2v1h-2zM48 39h1v1h-1zM5 40h1v1h-1zM7 40h1v1h-1zM10 40h1v1h-1zM12 40h5v1h-5zM18 40h1v1h-1zM20 40h1v1h-1zM27 40h2v1h-2zM34 40h1v1h-1zM36 40h6v1h-6zM45 40h1v1h-1zM49 40h1v1h-1zM4 41h2v1h-2zM9 41h1v1h-1zM11 41h3v1h-3zM17 41h5v1h-5zM25 41h1v1h-1zM27 41h3v1h-3zM32 41h1v1h-1zM36 41h1v1h-1zM38 41h1v1h-1zM41 41h1v1h-1zM43 41h1v1h-1zM45 41h1v1h-1zM47 41h1v1h-1zM52 41h1v1h-1zM5 42h1v1h-1zM9 42h2v1h-2zM12 42h1v1h-1zM15 42h3v1h-3zM21 42h2v1h-2zM24 42h1v1h-1zM28 42h2v1h-2zM34 42h1v1h-1zM37 42h1v1h-1zM42 42h2v1h-2zM46 42h1v1h-1zM48 42h1v1h-1zM52 42h1v1h-1zM5 43h3v1h-3zM11 43h1v1h-1zM13 43h1v1h-1zM16 43h1v1h-1zM18 43h1v1h-1zM22 43h3v1h-3zM32 43h2v1h-2zM35 43h2v1h-2zM38 43h1v1h-1zM42 43h1v1h-1zM45 43h1v1h-1zM50 43h1v1h-1zM52 43h1v1h-1zM4 44h3v1h-3zM10 44h1v1h-1zM13 44h9v1h-9zM23 44h1v1h-1zM26 44h5v1h-5zM36 44h1v1h-1zM38 44h4v1h-4zM44 44h5v1h-5zM52 44h1v1h-1zM12 45h1v1h-1zM15 45h1v1h-1zM17 45h1v1h-1zM24 45h3v1h-3zM30 45h4v1h-4zM38 45h2v1h-2zM44 45h1v1h-1zM48 45h1v1h-1zM52 45h1v1h-1zM4 46h7v1h-7zM13 46h1v1h-1zM17 46h1v1h-1zM20 46h3v1h-3zM24 46h3v1h-3zM28 46h1v1h-1zM30 46h2v1h-2zM35 46h2v1h-2zM38 46h1v1h-1zM42 46h3v1h-3zM46 46h1v1h-1zM48 46h1v1h-1zM50 46h3v1h-3zM4 47h1v1h-1zM10 47h1v1h-1zM13 47h4v1h-4zM19 47h2v1h-2zM24 47h1v1h-1zM26 47h1v1h-1zM30 47h2v1h-2zM33 47h2v1h-2zM38 47h7v1h-7zM48 47h1v1h-1zM50 47h1v1h-1zM4 48h1v1h-1zM6 48h3v1h-3zM10 48h1v1h-1zM14 48h3v1h-3zM18 48h5v1h-5zM25 48h8v1h-8zM34 48h2v1h-2zM38 48h1v1h-1zM40 48h3v1h-3zM44 48h6v1h-6zM52 48h1v1h-1zM4 49h1v1h-1zM6 49h3v1h-3zM10 49h1v1h-1zM12 49h2v1h-2zM17 49h2v1h-2zM22 49h1v1h-1zM24 49h1v1h-1zM26 49h3v1h-3zM33 49h2v1h-2zM39 49h1v1h-1zM45 49h4v1h-4zM50 49h2v1h-2zM4 50h1v1h-1zM6 50h3v1h-3zM10 50h1v1h-1zM19 50h2v1h-2zM24 50h3v1h-3zM28 50h4v1h-4zM33 50h1v1h-1zM36 50h4v1h-4zM48 50h1v1h-1zM50 50h3v1h-3zM4 51h1v1h-1zM10 51h1v1h-1zM13 51h3v1h-3zM17 51h12v1h-12zM34 51h1v1h-1zM37 51h2v1h-2zM40 51h1v1h-1zM47 51h2v1h-2zM4 52h7v1h-7zM13 52h1v1h-1zM15 52h1v1h-1zM17 52h2v1h-2zM20 52h2v1h-2zM23 52h3v1h-3zM27 52h1v1h-1zM31 52h2v1h-2zM35 52h6v1h-6zM42 52h1v1h-1zM44 52h1v1h-1zM47 52h1v1h-1zM51 52h2v1h-2z" fill="#67236C"/>
</svg>
