<?xml version="1.0" encoding="UTF-8"?>
<svg xmlns="http://www.w3.org/2000/svg" viewBox="0 0 61 61" width="600" height="600" role="img" shape-rendering="crispEdges">
  <title>https://blogs.comphy-lab.org/Lecture-Notes/Intro-Soft-Matter/1.5-Taylor-Culick-Paradox</title>
  <rect width="61" height="61" fill="#FFFFFF"/>
  <path d="M4 4h7v1h-7zM12 4h1v1h-1zM14 4h2v1h-2zM19 4h2v1h-2zM22 4h1v1h-1zM25 4h1v1h-1zM27 4h1v1h-1zM30 4h1v1h-1zM34 4h5v1h-5zM40 4h1v1h-1zM42 4h1v1h-1zM45 4h2v1h-2zM50 4h7v1h-7zM4 5h1v1h-1zM10 5h1v1h-1zM14 5h2v1h-2zM17 5h1v1h-1zM21 5h1v1h-1zM23 5h2v1h-2zM28 5h1v1h-1zM31 5h2v1h-2zM38 5h1v1h-1zM40 5h3v1h-3zM45 5h3v1h-3zM50 5h1v1h-1zM56 5h1v1h-1zM4 6h1v1h-1zM6 6h3v1h-3zM10 6h1v1h-1zM12 6h1v1h-1zM15 6h1v1h-1zM18 6h5v1h-5zM24 6h4v1h-4zM29 6h2v1h-2zM32 6h2v1h-2zM35 6h1v1h-1zM37 6h1v1h-1zM40 6h1v1h-1zM42 6h3v1h-3zM47 6h1v1h-1zM50 6h1v1h-1zM52 6h3v1h-3zM56 6h1v1h-1zM4 7h1v1h-1zM6 7h3v1h-3zM10 7h1v1h-1zM13 7h5v1h-5zM21 7h1v1h-1zM24 7h1v1h-1zM26 7h1v1h-1zM29 7h2v1h-2zM32 7h1v1h-1zM34 7h1v1h-1zM36 7h1v1h-1zM39 7h1v1h-1zM41 7h2v1h-2zM44 7h3v1h-3zM48 7h1v1h-1zM50 7h1v1h-1zM52 7h3v1h-3zM56 7h1v1h-1zM4 8h1v1h-1zM6 8h3v1h-3zM10 8h1v1h-1zM12 8h2v1h-2zM15 8h2v1h-2zM18 8h1v1h-1zM20 8h1v1h-1zM22 8h4v1h-4zM28 8h6v1h-6zM37 8h2v1h-2zM41 8h1v1h-1zM45 8h2v1h-2zM50 8h1v1h-1zM52 8h3v1h-3zM56 8h1v1h-1zM4 9h1v1h-1zM10 9h1v1h-1zM13 9h1v1h-1zM17 9h1v1h-1zM20 9h6v1h-6zM27 9h2v1h-2zM32 9h2v1h-2zM36 9h4v1h-4zM42 9h1v1h-1zM44 9h3v1h-3zM50 9h1v1h-1zM56 9h1v1h-1zM4 10h7v1h-7zM12 10h1v1h-1zM14 10h1v1h-1zM16 10h1v1h-1zM18 10h1v1h-1zM20 10h1v1h-1zM22 10h1v1h-1zM24 10h1v1h-1zM26 10h1v1h-1zM28 10h1v1h-1zM30 10h1v1h-1zM32 10h1v1h-1zM34 10h1v1h-1zM36 10h1v1h-1zM38 10h1v1h-1zM40 10h1v1h-1zM42 10h1v1h-1zM44 10h1v1h-1zM46 10h1v1h-1zM48 10h1v1h-1zM50 10h7v1h-7zM12 11h1v1h-1zM14 11h1v1h-1zM17 11h2v1h-2zM22 11h1v1h-1zM24 11h1v1h-1zM27 11h2v1h-2zM32 11h1v1h-1zM34 11h1v1h-1zM39 11h1v1h-1zM44 11h2v1h-2zM47 11h2v1h-2zM9 12h2v1h-2zM13 12h4v1h-4zM20 12h2v1h-2zM24 12h1v1h-1zM26 12h8v1h-8zM36 12h6v1h-6zM45 12h1v1h-1zM47 12h2v1h-2zM50 12h1v1h-1zM52 12h1v1h-1zM54 12h1v1h-1zM56 12h1v1h-1zM5 13h1v1h-1zM8 13h2v1h-2zM14 13h7v1h-7zM22 13h1v1h-1zM24 13h4v1h-4zM29 13h4v1h-4zM38 13h2v1h-2zM41 13h3v1h-3zM45 13h2v1h-2zM48 13h7v1h-7zM4 14h5v1h-5zM10 14h1v1h-1zM12 14h1v1h-1zM15 14h3v1h-3zM19 14h1v1h-1zM21 14h1v1h-1zM25 14h3v1h-3zM29 14h4v1h-4zM36 14h4v1h-4zM41 14h2v1h-2zM44 14h1v1h-1zM46 14h5v1h-5zM53 14h1v1h-1zM55 14h1v1h-1zM5 15h1v1h-1zM8 15h2v1h-2zM12 15h1v1h-1zM15 15h4v1h-4zM21 15h1v1h-1zM23 15h2v1h-2zM31 15h1v1h-1zM35 15h3v1h-3zM40 15h3v1h-3zM45 15h2v1h-2zM51 15h1v1h-1zM56 15h1v1h-1zM4 16h2v1h-2zM10 16h1v1h-1zM12 16h1v1h-1zM16 16h4v1h-4zM21 16h1v1h-1zM26 16h3v1h-3zM31 16h1v1h-1zM36 16h1v1h-1zM40 16h3v1h-3zM46 16h1v1h-1zM48 16h1v1h-1zM50 16h4v1h-4zM55 16h2v1h-2zM4 17h3v1h-3zM8 17h1v1h-1zM11 17h1v1h-1zM13 17h2v1h-2zM16 17h2v1h-2zM19 17h1v1h-1zM22 17h2v1h-2zM26 17h5v1h-5zM35 17h1v1h-1zM37 17h1v1h-1zM39 17h3v1h-3zM44 17h3v1h-3zM53 17h4v1h-4zM4 18h1v1h-1zM8 18h1v1h-1zM10 18h3v1h-3zM14 18h1v1h-1zM17 18h1v1h-1zM19 18h1v1h-1zM22 18h2v1h-2zM26 18h1v1h-1zM29 18h2v1h-2zM35 18h2v1h-2zM39 18h1v1h-1zM42 18h1v1h-1zM44 18h2v1h-2zM47 18h1v1h-1zM51 18h1v1h-1zM53 18h2v1h-2zM6 19h1v1h-1zM15 19h1v1h-1zM20 19h3v1h-3zM25 19h1v1h-1zM27 19h1v1h-1zM33 19h1v1h-1zM36 19h1v1h-1zM38 19h2v1h-2zM42 19h2v1h-2zM45 19h2v1h-2zM48 19h3v1h-3zM54 19h2v1h-2zM5 20h2v1h-2zM10 20h3v1h-3zM14 20h1v1h-1zM16 20h9v1h-9zM28 20h3v1h-3zM32 20h1v1h-1zM34 20h2v1h-2zM38 20h3v1h-3zM42 20h1v1h-1zM46 20h1v1h-1zM48 20h2v1h-2zM51 20h2v1h-2zM54 20h1v1h-1zM5 21h3v1h-3zM11 21h1v1h-1zM13 21h1v1h-1zM16 21h3v1h-3zM20 21h3v1h-3zM24 21h2v1h-2zM27 21h1v1h-1zM29 21h4v1h-4zM34 21h1v1h-1zM36 21h2v1h-2zM39 21h3v1h-3zM43 21h1v1h-1zM46 21h1v1h-1zM49 21h1v1h-1zM51 21h1v1h-1zM53 21h2v1h-2zM56 21h1v1h-1zM5 22h1v1h-1zM8 22h5v1h-5zM15 22h2v1h-2zM20 22h3v1h-3zM25 22h1v1h-1zM27 22h3v1h-3zM36 22h1v1h-1zM38 22h1v1h-1zM40 22h2v1h-2zM43 22h3v1h-3zM51 22h2v1h-2zM56 22h1v1h-1zM4 23h1v1h-1zM7 23h1v1h-1zM14 23h2v1h-2zM19 23h1v1h-1zM24 23h1v1h-1zM30 23h3v1h-3zM35 23h3v1h-3zM39 23h2v1h-2zM44 23h3v1h-3zM48 23h1v1h-1zM56 23h1v1h-1zM4 24h2v1h-2zM7 24h5v1h-5zM13 24h5v1h-5zM19 24h6v1h-6zM29 24h2v1h-2zM33 24h2v1h-2zM36 24h1v1h-1zM38 24h1v1h-1zM40 24h2v1h-2zM46 24h2v1h-2zM50 24h5v1h-5zM4 25h1v1h-1zM6 25h4v1h-4zM11 25h1v1h-1zM13 25h1v1h-1zM15 25h1v1h-1zM17 25h1v1h-1zM21 25h1v1h-1zM27 25h1v1h-1zM29 25h1v1h-1zM35 25h2v1h-2zM39 25h2v1h-2zM42 25h9v1h-9zM53 25h2v1h-2zM56 25h1v1h-1zM5 26h1v1h-1zM7 26h1v1h-1zM10 26h1v1h-1zM12 26h2v1h-2zM15 26h4v1h-4zM20 26h2v1h-2zM25 26h4v1h-4zM31 26h3v1h-3zM36 26h1v1h-1zM38 26h1v1h-1zM40 26h2v1h-2zM43 26h2v1h-2zM47 26h1v1h-1zM49 26h3v1h-3zM53 26h1v1h-1zM55 26h1v1h-1zM7 27h3v1h-3zM11 27h1v1h-1zM13 27h2v1h-2zM17 27h5v1h-5zM23 27h1v1h-1zM26 27h3v1h-3zM32 27h2v1h-2zM36 27h1v1h-1zM44 27h2v1h-2zM47 27h2v1h-2zM51 27h1v1h-1zM53 27h1v1h-1zM6 28h8v1h-8zM15 28h1v1h-1zM20 28h1v1h-1zM22 28h3v1h-3zM26 28h10v1h-10zM37 28h2v1h-2zM40 28h2v1h-2zM44 28h1v1h-1zM46 28h1v1h-1zM48 28h6v1h-6zM55 28h1v1h-1zM5 29h4v1h-4zM12 29h3v1h-3zM21 29h2v1h-2zM24 29h3v1h-3zM28 29h1v1h-1zM32 29h1v1h-1zM35 29h2v1h-2zM40 29h2v1h-2zM43 29h1v1h-1zM45 29h4v1h-4zM52 29h1v1h-1zM55 29h2v1h-2zM5 30h1v1h-1zM8 30h1v1h-1zM10 30h1v1h-1zM12 30h1v1h-1zM16 30h3v1h-3zM21 30h2v1h-2zM24 30h1v1h-1zM26 30h1v1h-1zM28 30h1v1h-1zM30 30h1v1h-1zM32 30h2v1h-2zM37 30h1v1h-1zM39 30h2v1h-2zM42 30h1v1h-1zM44 30h5v1h-5zM50 30h1v1h-1zM52 30h1v1h-1zM4 31h2v1h-2zM7 31h2v1h-2zM12 31h3v1h-3zM19 31h2v1h-2zM23 31h1v1h-1zM26 31h1v1h-1zM28 31h1v1h-1zM32 31h3v1h-3zM38 31h1v1h-1zM41 31h1v1h-1zM44 31h2v1h-2zM48 31h1v1h-1zM52 31h1v1h-1zM54 31h2v1h-2zM6 32h1v1h-1zM8 32h8v1h-8zM18 32h1v1h-1zM22 32h4v1h-4zM27 32h6v1h-6zM34 32h2v1h-2zM37 32h2v1h-2zM40 32h2v1h-2zM48 32h5v1h-5zM55 32h1v1h-1zM4 33h1v1h-1zM6 33h1v1h-1zM9 33h1v1h-1zM11 33h1v1h-1zM13 33h1v1h-1zM16 33h1v1h-1zM19 33h1v1h-1zM21 33h1v1h-1zM26 33h2v1h-2zM33 33h2v1h-2zM38 33h1v1h-1zM41 33h1v1h-1zM43 33h3v1h-3zM47 33h2v1h-2zM50 33h3v1h-3zM54 33h1v1h-1zM56 33h1v1h-1zM4 34h1v1h-1zM6 34h5v1h-5zM14 34h2v1h-2zM17 34h2v1h-2zM20 34h4v1h-4zM32 34h1v1h-1zM37 34h5v1h-5zM45 34h4v1h-4zM50 34h1v1h-1zM53 34h4v1h-4zM4 35h4v1h-4zM14 35h1v1h-1zM16 35h2v1h-2zM21 35h1v1h-1zM23 35h2v1h-2zM29 35h2v1h-2zM33 35h1v1h-1zM41 35h1v1h-1zM44 35h1v1h-1zM47 35h2v1h-2zM50 35h2v1h-2zM53 35h1v1h-1zM56 35h1v1h-1zM4 36h4v1h-4zM10 36h2v1h-2zM13 36h1v1h-1zM15 36h2v1h-2zM20 36h2v1h-2zM24 36h1v1h-1zM27 36h1v1h-1zM30 36h1v1h-1zM33 36h3v1h-3zM38 36h3v1h-3zM50 36h1v1h-1zM53 36h3v1h-3zM6 37h3v1h-3zM11 37h6v1h-6zM20 37h4v1h-4zM26 37h1v1h-1zM30 37h1v1h-1zM34 37h1v1h-1zM37 37h1v1h-1zM40 37h5v1h-5zM46 37h1v1h-1zM49 37h1v1h-1zM51 37h2v1h-2zM54 37h1v1h-1zM4 38h2v1h-2zM10 38h4v1h-4zM15 38h1v1h-1zM18 38h2v1h-2zM23 38h1v1h-1zM25 38h4v1h-4zM30 38h1v1h-1zM32 38h1v1h-1zM36 38h7v1h-7zM53 38h2v1h-2zM5 39h2v1h-2zM11 39h1v1h-1zM13 39h4v1h-4zM18 39h3v1h-3zM22 39h1v1h-1zM25 39h2v1h-2zM29 39h4v1h-4zM34 39h2v1h-2zM37 39h3v1h-3zM41 39h4v1h-4zM46 39h2v1h-2zM49 39h3v1h-3zM56 39h1v1h-1zM4 40h3v1h-3zM9 40h2v1h-2zM12 40h1v1h-1zM15 40h4v1h-4zM20 40h1v1h-1zM23 40h1v1h-1zM26 40h2v1h-2zM29 40h1v1h-1zM31 40h1v1h-1zM33 40h6v1h-6zM40 40h2v1h-2zM44 40h4v1h-4zM53 40h1v1h-1zM55 40h2v1h-2zM4 41h1v1h-1zM7 41h2v1h-2zM13 41h1v1h-1zM15 41h1v1h-1zM17 41h1v1h-1zM19 41h1v1h-1zM21 41h5v1h-5zM28 41h1v1h-1zM31 41h1v1h-1zM33 41h6v1h-6zM40 41h2v1h-2zM45 41h10v1h-10zM56 41h1v1h-1zM4 42h2v1h-2zM7 42h2v1h-2zM10 42h1v1h-1zM12 42h2v1h-2zM16 42h2v1h-2zM23 42h2v1h-2zM27 42h1v1h-1zM29 42h3v1h-3zM33 42h12v1h-12zM52 42h1v1h-1zM54 42h1v1h-1zM6 43h2v1h-2zM9 43h1v1h-1zM11 43h1v1h-1zM13 43h1v1h-1zM15 43h1v1h-1zM18 43h1v1h-1zM22 43h3v1h-3zM26 43h1v1h-1zM28 43h3v1h-3zM32 43h1v1h-1zM34 43h3v1h-3zM39 43h1v1h-1zM41 43h2v1h-2zM45 43h1v1h-1zM47 43h1v1h-1zM51 43h4v1h-4zM4 44h1v1h-1zM6 44h1v1h-1zM8 44h1v1h-1zM10 44h1v1h-1zM13 44h5v1h-5zM20 44h1v1h-1zM23 44h1v1h-1zM25 44h2v1h-2zM29 44h3v1h-3zM34 44h3v1h-3zM39 44h2v1h-2zM43 44h1v1h-1zM46 44h1v1h-1zM48 44h1v1h-1zM52 44h1v1h-1zM54 44h2v1h-2zM4 45h1v1h-1zM6 45h1v1h-1zM9 45h1v1h-1zM12 45h1v1h-1zM16 45h1v1h-1zM19 45h1v1h-1zM21 45h2v1h-2zM26 45h1v1h-1zM28 45h2v1h-2zM31 45h1v1h-1zM36 45h6v1h-6zM43 45h7v1h-7zM51 45h1v1h-1zM53 45h2v1h-2zM56 45h1v1h-1zM4 46h2v1h-2zM7 46h5v1h-5zM14 46h1v1h-1zM18 46h1v1h-1zM20 46h1v1h-1zM23 46h1v1h-1zM25 46h2v1h-2zM28 46h1v1h-1zM30 46h1v1h-1zM32 46h4v1h-4zM40 46h1v1h-1zM45 46h1v1h-1zM49 46h3v1h-3zM54 46h1v1h-1zM56 46h1v1h-1zM5 47h2v1h-2zM11 47h5v1h-5zM17 47h2v1h-2zM20 47h1v1h-1zM22 47h3v1h-3zM27 47h1v1h-1zM30 47h2v1h-2zM34 47h2v1h-2zM37 47h1v1h-1zM41 47h3v1h-3zM46 47h3v1h-3zM50 47h2v1h-2zM53 47h1v1h-1zM55 47h1v1h-1zM7 48h1v1h-1zM10 48h1v1h-1zM14 48h1v1h-1zM16 48h4v1h-4zM25 48h2v1h-2zM28 48h5v1h-5zM34 48h2v1h-2zM37 48h1v1h-1zM39 48h5v1h-5zM45 48h1v1h-1zM48 48h5v1h-5zM55 48h1v1h-1zM12 49h3v1h-3zM16 49h2v1h-2zM19 49h2v1h-2zM22 49h1v1h-1zM24 49h1v1h-1zM28 49h1v1h-1zM32 49h1v1h-1zM34 49h2v1h-2zM38 49h1v1h-1zM40 49h5v1h-5zM46 49h1v1h-1zM48 49h1v1h-1zM52 49h2v1h-2zM4 50h7v1h-7zM13 50h1v1h-1zM17 50h3v1h-3zM22 50h1v1h-1zM24 50h1v1h-1zM28 50h1v1h-1zM30 50h1v1h-1zM32 50h1v1h-1zM35 50h1v1h-1zM37 50h1v1h-1zM39 50h1v1h-1zM41 50h3v1h-3zM48 50h1v1h-1zM50 50h1v1h-1zM52 50h2v1h-2zM4 51h1v1h-1zM10 51h1v1h-1zM12 51h2v1h-2zM15 51h1v1h-1zM19 51h3v1h-3zM26 51h3v1h-3zM32 51h2v1h-2zM35 51h2v1h-2zM44 51h2v1h-2zM48 51h1v1h-1zM52 51h2v1h-2zM55 51h2v1h-2zM4 52h1v1h-1zM6 52h3v1h-3zM10 52h1v1h-1zM13 52h1v1h-1zM15 52h2v1h-2zM18 52h2v1h-2zM23 52h2v1h-2zM28 52h11v1h-11zM40 52h1v1h-1zM42 52h1v1h-1zM44 52h1v1h-1zM46 52h7v1h-7zM54 52h1v1h-1zM4 53h1v1h-1zM6 53h3v1h-3zM10 53h1v1h-1zM14 53h2v1h-2zM17 53h2v1h-2zM23 53h1v1h-1zM29 53h1v1h-1zM31 53h1v1h-1zM33 53h2v1h-2zM38 53h1v1h-1zM40 53h2v1h-2zM45 53h2v1h-2zM55 53h1v1h-1zM4 54h1v1h-1zM6 54h3v1h-3zM10 54h1v1h-1zM13 54h2v1h-2zM16 54h4v1h-4zM21 54h2v1h-2zM24 54h2v1h-2zM27 54h1v1h-1zM35 54h1v1h-1zM37 54h1v1h-1zM39 54h1v1h-1zM42 54h2v1h-2zM46 54h3v1h-3zM50 54h4v1h-4zM4 55h1v1h-1zM10 55h1v1h-1zM13 55h4v1h-4zM18 55h2v1h-2zM21 55h4v1h-4zM26 55h1v1h-1zM30 55h1v1h-1zM33 55h1v1h-1zM35 55h3v1h-3zM40 55h2v1h-2zM43 55h1v1h-1zM46 55h1v1h-1zM49 55h2v1h-2zM52 55h1v1h-1zM54 55h1v1h-1zM56 55h1v1h-1zM4 56h7v1h-7zM13 56h1v1h-1zM15 56h1v1h-1zM21 56h2v1h-2zM24 56h1v1h-1zM26 56h1v1h-1zM29 56h1v1h-1zM34 56h1v1h-1zM36 56h2v1h-2zM39 56h1v1h-1zM42 56h1v1h-1zM45 56h7v1h-7zM54 56h1v1h-1z" fill="#67236C"/>
</svg>
